<svg width="18" height="18" viewBox="0 0 18 18" fill="none" xmlns="http://www.w3.org/2000/svg">
<path d="M16 5C14.623 2.586 11.978 1 9 1C7.41775 1 5.87103 1.46919 4.55544 2.34824C3.23984 3.22729 2.21446 4.47672 1.60896 5.93853C1.00346 7.40034 0.845035 9.00887 1.15372 10.5607C1.4624 12.1126 2.22432 13.538 3.34314 14.6569C4.46196 15.7757 5.88743 16.5376 7.43928 16.8463C8.99112 17.155 10.5997 16.9965 12.0615 16.391C13.5233 15.7855 14.7727 14.7602 15.6518 13.4446C16.5308 12.129 17 10.5823 17 9" stroke="black" stroke-width="2" stroke-linecap="round" stroke-linejoin="round"/>
<path d="M12 5L16 5L16 1" stroke="black" stroke-width="2" stroke-linecap="round" stroke-linejoin="round"/>
</svg>
